<svg xmlns="http://www.w3.org/2000/svg" xmlns:xlink="http://www.w3.org/1999/xlink" id="svg" version="1.1" width="400" height="26.166666666666668" viewBox="0, 0, 400,26.166666666666668"><g id="svgg"><path id="path0" d="M11.167 0.115 C 2.550 1.555,0.681 11.502,8.450 14.579 C 12.762 16.288,13.528 16.957,13.254 18.779 C 12.803 21.792,6.846 22.035,4.699 19.128 C 4.424 18.756,4.150 18.755,3.739 19.125 C 3.561 19.285,2.853 19.865,2.166 20.413 C -0.392 22.454,-0.312 22.275,0.855 23.353 C 5.854 27.973,16.313 26.779,18.891 21.294 C 21.100 16.596,18.492 12.228,12.336 10.319 C 9.808 9.535,8.973 7.620,10.447 5.989 C 11.865 4.419,15.168 4.516,16.756 6.173 C 17.296 6.737,17.648 6.793,18.017 6.375 C 18.158 6.215,19.000 5.453,19.887 4.683 C 21.770 3.049,21.704 3.231,20.734 2.336 C 18.785 0.540,14.532 -0.447,11.167 0.115 M135.425 0.275 C 125.189 2.469,120.174 16.200,127.097 23.078 C 130.855 26.811,138.687 27.242,143.996 24.009 C 151.624 19.364,153.240 6.852,146.797 2.319 C 143.849 0.245,139.345 -0.565,135.425 0.275 M163.250 0.169 C 151.033 2.599,146.754 20.177,157.173 25.136 C 161.487 27.189,168.326 26.229,171.792 23.084 C 173.015 21.974,172.988 22.097,172.204 21.230 C 171.863 20.852,171.142 20.008,170.603 19.355 C 169.461 17.970,169.434 17.963,168.595 18.821 C 165.052 22.450,158.914 20.835,157.907 16.009 C 156.382 8.691,165.481 1.928,170.049 6.984 L 170.661 7.661 171.289 7.128 C 173.053 5.629,175.000 3.778,175.000 3.600 C 175.000 2.770,171.634 0.774,169.384 0.269 C 168.106 -0.018,164.486 -0.077,163.250 0.169 M22.845 10.376 C 20.260 25.052,20.201 25.406,20.280 25.542 C 20.355 25.671,26.167 25.723,26.167 25.594 C 26.167 25.555,26.348 24.523,26.569 23.303 C 26.791 22.082,27.169 19.958,27.410 18.583 C 27.651 17.208,27.888 15.877,27.937 15.625 L 28.026 15.167 32.774 15.167 C 37.219 15.167,37.517 15.185,37.434 15.458 C 37.386 15.619,37.274 16.200,37.187 16.750 C 37.099 17.300,36.790 19.100,36.500 20.750 C 35.753 25.000,35.692 25.401,35.777 25.542 C 35.819 25.610,38.620 25.667,42.002 25.667 L 48.151 25.667 49.117 24.073 C 49.649 23.196,50.211 22.277,50.367 22.031 C 50.523 21.785,50.749 21.396,50.869 21.167 L 51.088 20.750 55.853 20.706 L 60.618 20.662 60.989 22.872 C 61.194 24.088,61.397 25.215,61.442 25.375 C 61.515 25.640,61.815 25.667,64.689 25.667 C 67.645 25.667,67.850 25.647,67.762 25.371 C 67.682 25.118,67.156 22.382,66.249 17.500 C 66.121 16.813,65.859 15.425,65.667 14.417 C 65.474 13.408,65.212 12.021,65.084 11.333 C 64.957 10.646,64.590 8.696,64.269 7.000 C 63.948 5.304,63.565 3.279,63.418 2.500 C 63.270 1.721,63.111 0.952,63.064 0.792 C 62.986 0.529,62.697 0.500,60.107 0.500 L 57.237 0.500 56.666 1.458 C 56.351 1.985,55.969 2.604,55.816 2.833 C 55.663 3.063,55.276 3.663,54.958 4.167 C 53.601 6.312,52.770 7.620,52.417 8.167 C 52.209 8.487,51.684 9.313,51.250 10.000 C 50.816 10.688,50.291 11.512,50.083 11.833 C 49.876 12.154,49.351 12.979,48.917 13.667 C 47.569 15.799,47.407 16.054,46.745 17.083 C 46.391 17.633,45.853 18.476,45.548 18.957 C 45.244 19.437,44.732 20.242,44.412 20.747 C 44.091 21.251,43.578 22.058,43.273 22.540 C 42.179 24.267,41.924 24.646,41.880 24.603 C 41.845 24.567,43.716 13.726,44.732 8.083 C 44.863 7.350,45.096 6.037,45.248 5.167 C 45.401 4.296,45.632 3.032,45.763 2.357 C 46.162 0.296,46.444 0.485,43.054 0.538 L 40.107 0.583 39.989 1.024 C 39.882 1.425,39.384 4.208,38.681 8.333 L 38.411 9.917 33.706 9.961 C 29.137 10.004,29.000 9.996,29.000 9.680 C 29.000 9.502,29.182 8.357,29.405 7.136 C 30.147 3.076,30.500 1.018,30.500 0.758 C 30.500 0.535,30.101 0.500,27.542 0.501 L 24.583 0.502 22.845 10.376 M69.599 0.642 C 69.550 0.720,69.660 2.464,69.843 4.517 C 70.025 6.570,70.511 12.110,70.922 16.827 C 71.334 21.544,71.731 25.465,71.806 25.539 C 71.881 25.614,73.203 25.654,74.744 25.629 L 77.547 25.583 78.357 24.000 C 78.802 23.129,80.070 20.542,81.175 18.250 C 84.411 11.538,85.737 8.848,85.786 8.897 C 85.811 8.922,86.170 12.387,86.583 16.596 C 86.997 20.806,87.377 24.570,87.428 24.962 L 87.522 25.674 90.457 25.629 L 93.393 25.583 93.946 24.500 C 94.251 23.904,95.107 22.142,95.850 20.583 C 96.592 19.025,97.596 16.925,98.080 15.917 C 98.564 14.908,99.427 13.108,99.998 11.917 C 101.533 8.708,102.482 6.735,103.984 3.619 C 104.726 2.080,105.333 0.748,105.333 0.660 C 105.333 0.563,104.081 0.500,102.167 0.500 C 100.231 0.500,99.000 0.563,99.000 0.662 C 99.000 0.815,98.759 1.375,97.648 3.803 C 97.383 4.383,97.167 4.887,97.167 4.923 C 97.167 4.960,96.988 5.386,96.769 5.870 C 96.550 6.354,96.221 7.087,96.038 7.500 C 95.570 8.553,95.097 9.617,94.686 10.542 C 94.492 10.977,94.175 11.690,93.981 12.125 C 93.202 13.875,93.022 14.287,92.649 15.167 C 91.659 17.500,91.808 18.093,91.074 8.877 L 90.413 0.583 87.302 0.538 C 84.195 0.493,84.191 0.493,84.073 0.871 C 84.008 1.080,83.711 1.775,83.413 2.417 C 82.856 3.618,82.140 5.167,81.333 6.917 C 80.778 8.121,79.987 9.834,79.255 11.417 C 78.959 12.058,78.461 13.140,78.150 13.821 C 77.838 14.501,77.355 15.540,77.075 16.130 L 76.567 17.203 76.277 10.226 C 76.118 6.389,75.943 2.631,75.888 1.875 L 75.787 0.500 72.737 0.500 C 71.059 0.500,69.647 0.564,69.599 0.642 M112.111 2.208 C 111.947 3.148,111.703 4.517,111.569 5.250 C 109.934 14.228,108.040 25.440,108.141 25.541 C 108.212 25.612,111.750 25.651,116.004 25.627 L 123.739 25.583 124.109 23.417 C 124.313 22.225,124.520 21.044,124.569 20.792 L 124.658 20.333 119.829 20.333 C 115.341 20.333,115.000 20.313,115.001 20.042 C 115.001 19.881,115.226 18.512,115.500 17.000 C 116.208 13.092,116.571 11.058,117.252 7.167 C 117.581 5.287,117.959 3.198,118.092 2.524 C 118.225 1.849,118.333 1.118,118.333 0.899 L 118.333 0.500 115.372 0.500 L 112.411 0.500 112.111 2.208 M187.384 1.415 C 187.035 1.918,186.456 2.799,186.096 3.373 C 185.737 3.947,185.192 4.810,184.886 5.290 C 184.579 5.770,184.078 6.558,183.772 7.040 C 183.467 7.522,182.928 8.367,182.576 8.917 C 181.775 10.167,180.882 11.572,180.405 12.333 C 179.703 13.454,178.457 15.421,178.083 16.000 C 177.876 16.321,177.350 17.146,176.914 17.833 C 175.736 19.693,175.001 20.847,174.582 21.500 C 174.375 21.821,173.852 22.646,173.420 23.333 C 172.987 24.021,172.490 24.787,172.316 25.035 C 172.142 25.283,172.000 25.529,172.000 25.580 C 172.000 25.631,173.552 25.653,175.448 25.628 L 178.896 25.583 180.375 23.125 L 181.854 20.667 186.567 20.667 L 191.279 20.667 191.657 22.958 C 191.864 24.219,192.062 25.344,192.095 25.458 C 192.141 25.615,192.918 25.667,195.245 25.667 C 198.801 25.667,198.508 25.860,198.094 23.785 C 197.962 23.124,197.660 21.533,197.422 20.250 C 197.185 18.967,196.920 17.579,196.835 17.167 C 196.749 16.754,196.485 15.367,196.247 14.083 C 195.834 11.850,195.123 8.072,194.240 3.417 C 194.014 2.225,193.791 1.081,193.745 0.875 C 193.661 0.504,193.629 0.500,190.839 0.500 L 188.018 0.500 187.384 1.415 M203.102 0.792 C 203.030 1.032,199.215 22.607,198.910 24.500 C 198.858 24.821,198.777 25.215,198.730 25.375 C 198.649 25.650,199.098 25.667,206.532 25.667 L 214.420 25.667 214.881 23.125 C 215.134 21.727,215.340 20.527,215.337 20.458 C 215.335 20.390,213.155 20.333,210.492 20.333 L 205.652 20.333 205.754 19.708 C 205.811 19.365,205.959 18.521,206.084 17.833 C 206.308 16.591,206.435 15.878,207.590 9.333 C 208.417 4.654,208.983 1.506,209.097 0.958 L 209.193 0.500 206.191 0.500 C 203.476 0.500,203.181 0.528,203.102 0.792 M141.188 5.894 C 147.202 8.742,144.650 19.430,137.657 20.680 C 131.864 21.715,128.373 16.030,131.215 10.188 C 133.174 6.160,137.666 4.226,141.188 5.894 M59.406 11.750 C 59.647 13.400,59.888 14.994,59.941 15.292 L 60.037 15.833 56.940 15.833 C 53.430 15.833,53.623 15.950,54.587 14.417 C 54.874 13.958,55.163 13.471,55.228 13.333 C 55.352 13.071,55.381 13.023,56.358 11.416 C 56.692 10.866,57.142 10.112,57.358 9.739 C 57.574 9.366,57.975 8.671,58.250 8.196 L 58.750 7.331 58.859 8.040 C 58.918 8.431,59.165 10.100,59.406 11.750 M189.500 7.737 C 189.500 7.965,190.396 14.186,190.588 15.292 L 190.682 15.833 187.591 15.833 C 185.891 15.833,184.500 15.794,184.500 15.747 C 184.500 15.699,184.688 15.363,184.917 15.000 C 185.146 14.637,185.333 14.307,185.333 14.267 C 185.333 14.226,185.708 13.588,186.167 12.849 C 186.625 12.110,187.000 11.466,187.000 11.418 C 187.000 11.369,187.358 10.749,187.796 10.040 C 188.234 9.330,188.738 8.469,188.917 8.125 C 189.251 7.483,189.500 7.318,189.500 7.737 " stroke="none" fill="#142c74" fill-rule="evenodd"/><path id="path1" d="M388.201 13.708 C 387.076 20.148,386.157 25.476,386.161 25.549 C 386.164 25.622,386.669 25.660,387.283 25.633 L 388.399 25.583 389.027 21.936 C 389.373 19.930,389.681 18.263,389.713 18.231 C 389.745 18.199,391.154 19.857,392.844 21.915 L 395.917 25.657 397.389 25.662 C 398.199 25.664,398.836 25.605,398.806 25.530 C 398.775 25.454,397.325 23.724,395.583 21.685 C 393.842 19.645,392.394 17.914,392.367 17.839 C 392.340 17.763,394.027 16.260,396.117 14.497 C 400.598 10.718,400.404 11.000,398.518 11.000 L 397.009 11.000 393.463 14.147 C 391.512 15.878,389.898 17.277,389.875 17.257 C 389.839 17.227,392.165 3.766,392.433 2.458 L 392.526 2.000 391.387 2.000 L 390.248 2.000 388.201 13.708 M226.000 3.576 C 226.000 3.618,225.137 8.534,224.083 14.500 C 223.029 20.466,222.167 25.419,222.167 25.507 C 222.167 25.894,224.459 25.687,224.554 25.292 C 224.603 25.085,225.335 20.942,226.180 16.083 C 227.024 11.225,227.765 7.194,227.825 7.125 C 227.885 7.056,229.909 11.200,232.324 16.333 L 236.715 25.667 238.149 25.666 L 239.583 25.666 241.472 14.874 C 242.510 8.939,243.396 3.952,243.441 3.792 C 243.513 3.533,243.384 3.500,242.303 3.501 L 241.083 3.502 239.518 12.459 C 238.657 17.386,237.905 21.547,237.848 21.707 C 237.779 21.900,236.270 18.910,233.330 12.752 L 228.917 3.506 227.458 3.503 C 226.656 3.501,226.000 3.534,226.000 3.576 M299.760 3.702 C 299.626 4.121,296.000 24.968,296.000 25.315 C 296.000 25.638,296.091 25.667,297.133 25.667 L 298.265 25.667 299.903 16.292 C 300.804 11.135,301.556 6.899,301.574 6.877 C 301.593 6.855,303.595 11.055,306.024 16.210 L 310.439 25.583 311.872 25.631 L 313.304 25.679 313.402 25.215 C 313.603 24.270,317.166 3.909,317.166 3.708 C 317.167 3.562,316.826 3.500,316.015 3.500 L 314.864 3.500 314.587 5.042 C 314.435 5.890,313.696 10.086,312.945 14.368 L 311.579 22.152 307.139 12.868 L 302.698 3.583 301.263 3.535 C 300.204 3.500,299.810 3.543,299.760 3.702 M334.936 8.688 C 334.536 11.197,334.694 11.000,333.075 11.000 C 331.516 11.000,331.575 10.963,331.414 12.042 L 331.295 12.833 332.731 12.833 C 333.818 12.833,334.167 12.887,334.167 13.056 C 334.167 13.178,333.836 15.147,333.432 17.431 C 332.423 23.132,332.454 22.877,332.670 23.690 C 333.108 25.340,334.576 26.043,336.829 25.680 C 338.116 25.473,338.142 25.450,338.322 24.319 C 338.494 23.242,338.507 23.263,337.900 23.579 C 336.735 24.187,335.147 23.720,334.926 22.706 C 334.849 22.351,335.858 16.038,336.431 13.292 L 336.526 12.833 338.485 12.833 L 340.444 12.833 340.610 11.917 L 340.777 11.000 338.805 11.000 C 337.721 11.000,336.833 10.938,336.833 10.862 C 336.833 10.785,336.982 9.904,337.164 8.903 C 337.346 7.902,337.496 7.027,337.497 6.958 C 337.499 6.890,336.990 6.833,336.366 6.833 L 335.231 6.833 334.936 8.688 M248.895 10.973 C 243.454 12.853,241.014 20.071,244.522 23.909 C 247.086 26.714,252.118 26.635,255.298 23.740 L 256.250 22.872 255.500 22.204 L 254.750 21.535 253.980 22.254 C 250.493 25.509,245.167 23.878,245.167 19.553 L 245.167 19.000 251.153 19.000 L 257.140 19.000 257.226 18.542 C 257.951 14.688,256.635 11.764,253.796 10.921 C 252.597 10.565,249.996 10.593,248.895 10.973 M282.887 10.969 C 278.556 12.501,278.533 17.038,282.848 18.643 C 285.964 19.803,286.833 20.462,286.833 21.667 C 286.833 24.295,282.087 24.887,279.958 22.525 L 279.332 21.831 278.416 22.439 C 277.293 23.184,277.289 23.280,278.341 24.226 C 281.858 27.387,288.447 26.050,289.060 22.052 C 289.426 19.666,288.177 18.257,284.657 17.088 C 282.575 16.396,281.924 15.861,281.924 14.841 C 281.924 12.383,286.162 11.668,288.115 13.797 L 288.647 14.377 289.365 13.825 C 289.760 13.522,290.148 13.219,290.228 13.151 C 290.524 12.898,289.452 11.831,288.361 11.293 C 286.955 10.600,284.362 10.447,282.887 10.969 M322.627 10.982 C 316.272 13.071,314.460 22.493,319.899 25.170 C 322.618 26.509,326.080 26.098,328.626 24.134 C 329.949 23.113,330.004 22.925,329.207 22.129 L 328.546 21.468 327.768 22.224 C 324.401 25.496,319.000 23.934,319.000 19.689 L 319.000 19.000 324.987 19.000 L 330.973 19.000 331.091 17.900 C 331.456 14.496,330.435 12.201,328.083 11.140 C 326.908 10.610,324.013 10.526,322.627 10.982 M367.485 10.899 C 360.860 12.800,358.901 22.382,364.567 25.171 C 371.102 28.388,378.740 21.332,376.167 14.455 C 375.064 11.507,371.070 9.871,367.485 10.899 M384.533 10.947 C 384.139 11.086,383.377 11.607,382.840 12.104 L 381.864 13.007 381.955 12.004 L 382.046 11.000 381.026 11.000 C 380.101 11.000,380.000 11.035,379.935 11.375 C 379.896 11.581,379.362 14.675,378.748 18.250 C 378.135 21.825,377.593 24.960,377.544 25.216 L 377.455 25.683 378.598 25.633 L 379.741 25.583 380.439 21.588 C 381.700 14.360,382.766 12.733,386.207 12.776 L 387.498 12.792 387.657 12.188 C 387.744 11.855,387.865 11.377,387.926 11.125 L 388.036 10.667 386.643 10.680 C 385.856 10.687,384.938 10.803,384.533 10.947 M259.527 18.202 C 259.962 22.170,260.322 25.473,260.326 25.542 C 260.330 25.610,260.854 25.667,261.490 25.667 L 262.647 25.667 265.590 19.906 C 267.209 16.737,268.556 14.168,268.583 14.197 C 268.610 14.226,268.990 16.819,269.427 19.958 L 270.222 25.667 271.403 25.664 L 272.583 25.662 276.303 18.331 L 280.023 11.000 278.788 11.000 L 277.554 11.000 274.746 16.746 C 273.201 19.907,271.920 22.476,271.899 22.454 C 271.878 22.433,271.514 20.016,271.092 17.083 C 270.669 14.150,270.286 11.581,270.242 11.375 C 270.168 11.034,270.065 11.000,269.096 11.000 L 268.032 11.000 265.058 16.738 C 262.775 21.142,262.071 22.371,262.030 22.029 C 262.000 21.784,261.775 19.221,261.530 16.333 L 261.083 11.083 259.909 11.035 L 258.735 10.987 259.527 18.202 M341.432 11.875 C 341.488 12.356,341.846 15.637,342.227 19.167 L 342.920 25.583 344.085 25.628 L 345.250 25.673 348.156 20.003 C 349.754 16.885,351.105 14.333,351.159 14.333 C 351.212 14.333,351.580 16.677,351.976 19.542 C 352.373 22.406,352.738 24.959,352.787 25.215 C 352.877 25.677,352.886 25.680,354.039 25.632 L 355.200 25.583 358.850 18.438 C 360.858 14.508,362.500 11.227,362.500 11.146 C 362.500 11.066,361.974 11.000,361.331 11.000 L 360.162 11.000 357.385 16.671 C 355.858 19.790,354.558 22.284,354.496 22.213 C 354.435 22.142,354.143 20.358,353.848 18.250 C 353.553 16.142,353.193 13.645,353.048 12.701 L 352.784 10.986 351.697 11.035 L 350.610 11.083 347.682 16.697 C 346.072 19.784,344.727 22.282,344.693 22.248 C 344.650 22.205,343.767 12.536,343.669 11.042 C 343.668 11.019,343.141 11.000,342.499 11.000 L 341.330 11.000 341.432 11.875 M252.766 12.745 C 254.248 13.185,255.167 14.525,255.167 16.245 L 255.167 17.167 250.337 17.167 L 245.508 17.167 245.667 16.749 C 246.883 13.550,249.847 11.879,252.766 12.745 M327.176 13.015 C 328.243 13.604,328.847 14.667,328.886 16.021 L 328.917 17.083 324.113 17.128 L 319.309 17.172 319.426 16.794 C 320.461 13.448,324.443 11.506,327.176 13.015 M371.269 12.746 C 374.277 13.639,375.226 17.582,373.241 20.938 C 370.389 25.759,363.658 24.704,363.669 19.437 C 363.677 14.967,367.479 11.621,371.269 12.746 " stroke="none" fill="#241c24" fill-rule="evenodd"/><path id="path2" d="" stroke="none" fill="#1c2478" fill-rule="evenodd"/><path id="path3" d="" stroke="none" fill="#1c2478" fill-rule="evenodd"/><path id="path4" d="" stroke="none" fill="#1c2478" fill-rule="evenodd"/><path id="path5" d="" stroke="none" fill="#1c2478" fill-rule="evenodd"/><path id="path6" d="" stroke="none" fill="#1c2478" fill-rule="evenodd"/><path id="path7" d="" stroke="none" fill="#1c2478" fill-rule="evenodd"/><path id="path8" d="" stroke="none" fill="#1c2478" fill-rule="evenodd"/></g></svg>