<?xml version="1.0" encoding="UTF-8"?><svg id="Layer_2" xmlns="http://www.w3.org/2000/svg" viewBox="0 0 1442.17 88.12"><defs><style>.cls-1{fill:#231f20;stroke-width:0px;}</style></defs><g id="Layer_1-2"><path class="cls-1" d="m38.76,3.38c4.64,1.53,8.4,4.32,11.28,8.39,2.31,3.29,3.88,6.85,4.72,10.68s1.26,7.48,1.26,10.95c0,8.8-1.77,16.25-5.3,22.35-4.79,8.23-12.19,12.34-22.19,12.34H0V1.94h28.53c4.09.06,7.5.54,10.23,1.44ZM13.41,13.43v43.18h12.77c6.53,0,11.09-3.22,13.67-9.65,1.41-3.53,2.11-7.74,2.11-12.61,0-6.73-1.06-11.9-3.17-15.51s-6.32-5.41-12.61-5.41h-12.77Z"/><path class="cls-1" d="m74.42,19.18v29.49c0,2.78.33,4.88.98,6.28,1.16,2.48,3.44,3.73,6.83,3.73,4.35,0,7.33-1.77,8.93-5.3.83-1.92,1.25-4.44,1.25-7.59v-26.62h12.97v48.93h-12.43v-6.91c-.12.15-.42.6-.9,1.35s-1.04,1.41-1.7,1.98c-2,1.79-3.93,3.02-5.8,3.68-1.87.66-4.05.99-6.56.99-7.22,0-12.09-2.6-14.59-7.81-1.4-2.87-2.1-7.11-2.1-12.7v-29.49h13.12Z"/><path class="cls-1" d="m159.6,39.47c-3.87,3.23-9.4,4.85-16.59,4.85h-13.78v23.79h-13.74V1.94h28.41c6.55,0,11.77,1.71,15.67,5.12,3.9,3.41,5.84,8.69,5.84,15.85,0,7.8-1.94,13.33-5.81,16.56Zm-10.55-23.84c-1.75-1.47-4.2-2.2-7.36-2.2h-12.46v19.48h12.46c3.15,0,5.61-.79,7.36-2.38,1.75-1.59,2.63-4.1,2.63-7.54s-.88-5.89-2.63-7.36Z"/><path class="cls-1" d="m191.17,38.35c2.38-.3,4.08-.67,5.11-1.12,1.84-.78,2.76-1.99,2.76-3.64,0-2-.71-3.39-2.12-4.15s-3.48-1.15-6.21-1.15c-3.06,0-5.23.75-6.51,2.24-.91,1.11-1.52,2.6-1.82,4.49h-12.34c.27-4.28,1.47-7.79,3.61-10.55,3.4-4.31,9.23-6.46,17.49-6.46,5.38,0,10.16,1.06,14.34,3.19,4.18,2.12,6.27,6.14,6.27,12.03v22.44c0,1.56.03,3.44.09,5.66.09,1.68.34,2.81.76,3.41s1.05,1.09,1.89,1.48v1.89h-13.92c-.39-.99-.66-1.92-.81-2.78-.15-.87-.27-1.86-.36-2.96-1.78,1.92-3.82,3.55-6.14,4.89-2.77,1.59-5.9,2.38-9.39,2.38-4.46,0-8.13-1.26-11.04-3.79-2.9-2.53-4.36-6.11-4.36-10.75,0-6.01,2.34-10.37,7.01-13.06,2.56-1.47,6.33-2.51,11.31-3.14l4.38-.55Zm7.82,5.97c-.82.51-1.65.92-2.48,1.23-.83.31-1.98.61-3.44.88l-2.91.54c-2.73.48-4.69,1.06-5.88,1.75-2.02,1.17-3.02,2.98-3.02,5.43,0,2.18.62,3.76,1.85,4.74,1.23.97,2.73,1.46,4.49,1.46,2.8,0,5.37-.81,7.73-2.42,2.36-1.62,3.58-4.56,3.67-8.84v-4.77h-.01Z"/><path class="cls-1" d="m243.45,19.13c3.11,1.29,5.62,3.65,7.53,7.09v-7.05h12.48v46.42c0,6.31-1.06,11.07-3.19,14.27-3.65,5.51-10.65,8.26-21.01,8.26-6.25,0-11.36-1.23-15.31-3.68s-6.14-6.12-6.55-11h13.92c.36,1.5.94,2.57,1.75,3.23,1.38,1.17,3.7,1.75,6.96,1.75,4.61,0,7.69-1.54,9.25-4.62,1.02-1.98,1.53-5.3,1.53-9.97v-3.14c-1.23,2.1-2.54,3.67-3.95,4.71-2.54,1.95-5.85,2.92-9.92,2.92-6.28,0-11.31-2.21-15.06-6.62-3.76-4.41-5.63-10.39-5.63-17.93s1.81-13.38,5.42-18.34c3.62-4.95,8.74-7.43,15.38-7.43,2.44,0,4.57.39,6.4,1.13Zm4.35,35.08c2.06-2.26,3.08-5.86,3.08-10.8,0-4.64-.98-8.17-2.93-10.59-1.95-2.42-4.57-3.64-7.84-3.64-4.47,0-7.55,2.11-9.25,6.33-.89,2.24-1.34,5.01-1.34,8.3,0,2.84.48,5.37,1.43,7.59,1.73,4.13,4.83,6.19,9.3,6.19,2.98,0,5.5-1.12,7.55-3.38Z"/><path class="cls-1" d="m303.6,20.17c3.41,1.53,6.23,3.94,8.46,7.24,2,2.91,3.3,6.28,3.9,10.12.34,2.25.48,5.49.42,9.71h-35.64c.2,4.91,1.9,8.35,5.12,10.32,1.95,1.23,4.3,1.84,7.05,1.84,2.91,0,5.28-.75,7.1-2.25.99-.81,1.87-1.93,2.63-3.37h13.06c-.34,2.9-1.93,5.85-4.74,8.84-4.38,4.76-10.52,7.14-18.41,7.14-6.51,0-12.26-2.01-17.23-6.02-4.98-4.01-7.47-10.54-7.47-19.59,0-8.48,2.25-14.98,6.74-19.5s10.33-6.78,17.5-6.78c4.26,0,8.1.77,11.51,2.3Zm-19.14,11.05c-1.81,1.86-2.94,4.39-3.41,7.57h22.04c-.23-3.4-1.37-5.97-3.41-7.73s-4.57-2.64-7.59-2.64c-3.27,0-5.82.94-7.63,2.8Z"/><path class="cls-1" d="m343.01,40.45c1.98-2.84,5.21-5.66,9.7-8.44l1.39-.85c-1.92-2.16-3.4-4.36-4.44-6.61-1.05-2.25-1.57-4.58-1.57-7.01,0-4.82,1.63-8.59,4.91-11.31,3.27-2.71,7.51-4.07,12.72-4.07,4.75,0,8.68,1.39,11.79,4.17,3.1,2.78,4.66,6.33,4.66,10.65,0,3.9-.93,7.07-2.79,9.5-1.86,2.43-4.59,4.68-8.19,6.75l9.51,11.53c1.09-1.56,1.93-3.25,2.52-5.07.59-1.83.9-3.76.93-5.79h11.36c-.21,4.02-1.18,8.09-2.91,12.2-.96,2.31-2.51,4.86-4.66,7.65l12.01,14.35h-15.51l-4.6-5.6c-2.24,2.08-4.33,3.61-6.26,4.6-3.45,1.77-7.43,2.66-11.93,2.66-6.78,0-12.07-1.98-15.88-5.93s-5.72-8.33-5.72-13.15c0-3.97.99-7.39,2.96-10.23Zm12.5,15.85c1.81,1.83,4.13,2.74,6.97,2.74,2.13,0,4.15-.48,6.05-1.44s3.45-2.03,4.64-3.22l-12.38-15.07c-3.24,2.13-5.38,4-6.43,5.62s-1.57,3.4-1.57,5.35c.01,2.18.91,4.19,2.72,6.02Zm5.64-35.44c.56.87,1.77,2.41,3.63,4.63,1.86-1.26,3.2-2.32,4-3.19,1.55-1.62,2.33-3.37,2.33-5.26,0-1.38-.47-2.61-1.4-3.69s-2.34-1.62-4.24-1.62c-1.18,0-2.28.31-3.31.94-1.55.93-2.33,2.4-2.33,4.41,0,1.2.45,2.46,1.32,3.78Z"/><path class="cls-1" d="m436.61,47.68c.43,3.02,1.27,5.28,2.52,6.78,2.29,2.72,6.22,4.08,11.78,4.08,3.33,0,6.03-.36,8.11-1.08,3.94-1.38,5.91-3.93,5.91-7.68,0-2.18-.97-3.88-2.9-5.07-1.93-1.17-4.99-2.2-9.19-3.1l-7.16-1.57c-7.04-1.56-11.88-3.25-14.51-5.07-4.46-3.05-6.69-7.83-6.69-14.32,0-5.93,2.18-10.85,6.54-14.77s10.77-5.88,19.22-5.88c7.06,0,13.08,1.85,18.06,5.54,4.98,3.7,7.6,9.06,7.84,16.09h-13.29c-.25-3.98-2.02-6.81-5.34-8.48-2.21-1.11-4.95-1.66-8.24-1.66-3.65,0-6.57.72-8.74,2.15-2.18,1.44-3.27,3.44-3.27,6.02,0,2.36,1.07,4.13,3.22,5.3,1.38.78,4.31,1.69,8.79,2.74l11.61,2.74c5.09,1.2,8.9,2.8,11.44,4.8,3.94,3.11,5.92,7.62,5.92,13.51s-2.34,11.06-7.01,15.06-11.27,5.99-19.8,5.99-15.56-1.97-20.55-5.9-7.49-9.34-7.49-16.23h13.22s0,.01,0,.01Z"/><path class="cls-1" d="m496,19.18v29.49c0,2.78.33,4.88.98,6.28,1.16,2.48,3.44,3.73,6.83,3.73,4.35,0,7.33-1.77,8.93-5.3.83-1.92,1.25-4.44,1.25-7.59v-26.62h12.97v48.93h-12.42v-6.91c-.12.15-.42.6-.9,1.35-.48.75-1.04,1.41-1.7,1.98-2,1.79-3.93,3.02-5.8,3.68-1.87.66-4.05.99-6.56.99-7.22,0-12.09-2.6-14.59-7.81-1.4-2.87-2.1-7.11-2.1-12.7v-29.49h13.11Z"/><path class="cls-1" d="m577.51,25.06c3.66,4.64,5.49,10.62,5.49,17.96s-1.81,13.9-5.42,18.9-8.65,7.5-15.11,7.5c-4.06,0-7.32-.81-9.79-2.42-1.47-.96-3.07-2.63-4.78-5.03v6.15h-12.61V2.04h12.79v23.52c1.63-2.27,3.42-4.01,5.38-5.21,2.32-1.5,5.27-2.24,8.85-2.24,6.48,0,11.54,2.31,15.2,6.95Zm-10.69,29.81c1.84-2.66,2.76-6.16,2.76-10.5,0-3.47-.45-6.34-1.36-8.62-1.72-4.31-4.89-6.46-9.5-6.46s-7.89,2.11-9.64,6.33c-.91,2.24-1.36,5.15-1.36,8.71,0,4.19.94,7.66,2.81,10.41s4.72,4.13,8.55,4.13c3.32-.01,5.9-1.34,7.74-4Z"/><path class="cls-1" d="m600.96,19.18v29.49c0,2.78.33,4.88.98,6.28,1.16,2.48,3.44,3.73,6.83,3.73,4.35,0,7.33-1.77,8.93-5.3.83-1.92,1.25-4.44,1.25-7.59v-26.62h12.97v48.93h-12.43v-6.91c-.12.15-.42.6-.9,1.35-.48.75-1.04,1.41-1.7,1.98-2,1.79-3.93,3.02-5.8,3.68s-4.05.99-6.56.99c-7.22,0-12.09-2.6-14.59-7.81-1.4-2.87-2.1-7.11-2.1-12.7v-29.49h13.12Z"/><path class="cls-1" d="m667.87,18.03c.16.02.53.04,1.1.07v13.11c-.81-.09-1.53-.15-2.15-.18-.63-.03-1.14-.04-1.53-.04-5.15,0-8.6,1.68-10.37,5.03-.99,1.89-1.48,4.79-1.48,8.71v23.39h-12.88V19.19h12.21v8.53c1.98-3.26,3.7-5.49,5.16-6.69,2.39-2,5.51-3.01,9.34-3.01.24-.01.44,0,.6,0Z"/><path class="cls-1" d="m714.57,25.06c3.66,4.64,5.49,10.62,5.49,17.96s-1.81,13.9-5.42,18.9-8.65,7.5-15.11,7.5c-4.06,0-7.32-.81-9.79-2.42-1.47-.96-3.07-2.63-4.78-5.03v6.15h-12.62V2.04h12.79v23.52c1.63-2.27,3.42-4.01,5.38-5.21,2.32-1.5,5.27-2.24,8.85-2.24,6.48,0,11.55,2.31,15.21,6.95Zm-10.69,29.81c1.84-2.66,2.76-6.16,2.76-10.5,0-3.47-.45-6.34-1.36-8.62-1.72-4.31-4.89-6.46-9.5-6.46s-7.89,2.11-9.64,6.33c-.91,2.24-1.36,5.15-1.36,8.71,0,4.19.94,7.66,2.81,10.41s4.72,4.13,8.55,4.13c3.32-.01,5.9-1.34,7.74-4Z"/><path class="cls-1" d="m744.65,38.35c2.38-.3,4.08-.67,5.11-1.12,1.84-.78,2.76-1.99,2.76-3.64,0-2-.71-3.39-2.12-4.15s-3.48-1.15-6.21-1.15c-3.06,0-5.23.75-6.51,2.24-.91,1.11-1.52,2.6-1.82,4.49h-12.34c.27-4.28,1.47-7.79,3.61-10.55,3.4-4.31,9.23-6.46,17.49-6.46,5.38,0,10.16,1.06,14.34,3.19,4.18,2.12,6.27,6.14,6.27,12.03v22.44c0,1.56.03,3.44.09,5.66.09,1.68.34,2.81.76,3.41s1.05,1.09,1.88,1.48v1.89h-13.92c-.39-.99-.66-1.92-.81-2.78-.15-.87-.27-1.86-.36-2.96-1.78,1.92-3.82,3.55-6.14,4.89-2.77,1.59-5.9,2.38-9.39,2.38-4.46,0-8.13-1.26-11.04-3.79s-4.36-6.11-4.36-10.75c0-6.01,2.34-10.37,7.01-13.06,2.56-1.47,6.33-2.51,11.31-3.14l4.39-.55Zm7.82,5.97c-.82.51-1.65.92-2.48,1.23-.84.31-1.98.61-3.44.88l-2.91.54c-2.73.48-4.69,1.06-5.88,1.75-2.01,1.17-3.02,2.98-3.02,5.43,0,2.18.62,3.76,1.85,4.74,1.23.97,2.73,1.46,4.49,1.46,2.8,0,5.37-.81,7.73-2.42,2.36-1.62,3.58-4.56,3.67-8.84v-4.77h0Z"/><path class="cls-1" d="m812.18,21.98c3.2,2.65,4.81,7.04,4.81,13.17v32.95h-13.11v-29.76c0-2.57-.34-4.55-1.02-5.93-1.25-2.51-3.62-3.77-7.13-3.77-4.31,0-7.26,1.84-8.87,5.52-.83,1.95-1.25,4.43-1.25,7.45v26.48h-12.79V19.25h12.39v7.14c1.64-2.51,3.19-4.32,4.65-5.43,2.62-1.98,5.94-2.96,9.97-2.96,5.02,0,9.14,1.34,12.35,3.98Z"/><path class="cls-1" d="m854.42,8.85c5.33-5.45,12.11-8.17,20.34-8.17,11.01,0,19.06,3.65,24.16,10.95,2.81,4.1,4.32,8.21,4.53,12.34h-13.83c-.88-3.17-2.01-5.57-3.39-7.18-2.46-2.87-6.11-4.31-10.95-4.31s-8.81,2.03-11.65,6.08c-2.84,4.06-4.27,9.79-4.27,17.21s1.5,12.98,4.5,16.68,6.81,5.54,11.44,5.54,8.36-1.59,10.85-4.76c1.38-1.71,2.52-4.26,3.42-7.68h13.74c-1.19,7.21-4.21,13.08-9.08,17.6-4.87,4.52-11.11,6.78-18.72,6.78-9.42,0-16.82-3.05-22.21-9.16-5.39-6.13-8.08-14.54-8.08-25.23.01-11.53,3.07-20.43,9.2-26.69Z"/><path class="cls-1" d="m950.58,62.12c-4.13,5.1-10.4,7.65-18.81,7.65s-14.68-2.55-18.81-7.65-6.19-11.24-6.19-18.41,2.06-13.17,6.19-18.34,10.4-7.76,18.81-7.76,14.68,2.59,18.81,7.76,6.2,11.29,6.2,18.34-2.07,13.31-6.2,18.41Zm-10.23-7.07c2-2.66,3.01-6.44,3.01-11.34s-1-8.67-3.01-11.32c-2.01-2.64-4.88-3.97-8.62-3.97s-6.62,1.32-8.64,3.97c-2.02,2.64-3.03,6.42-3.03,11.32s1.01,8.68,3.03,11.34,4.9,3.99,8.64,3.99c3.74,0,6.61-1.33,8.62-3.99Z"/><path class="cls-1" d="m1003.06,62.12c-4.13,5.1-10.4,7.65-18.81,7.65s-14.68-2.55-18.81-7.65c-4.13-5.1-6.19-11.24-6.19-18.41s2.06-13.17,6.19-18.34c4.13-5.17,10.4-7.76,18.81-7.76s14.68,2.59,18.81,7.76,6.2,11.29,6.2,18.34-2.07,13.31-6.2,18.41Zm-10.23-7.07c2-2.66,3.01-6.44,3.01-11.34s-1-8.67-3.01-11.32c-2.01-2.64-4.88-3.97-8.62-3.97s-6.62,1.32-8.64,3.97c-2.02,2.64-3.03,6.42-3.03,11.32s1.01,8.68,3.03,11.34,4.9,3.99,8.64,3.99,6.61-1.33,8.62-3.99Z"/><path class="cls-1" d="m1014.6,2.16h12.57v35.69l16.14-18.46h15.91l-17.54,18.23,18.22,30.48h-15.57l-11.86-20.9-5.3,5.51v15.4h-12.57V2.16Z"/><path class="cls-1" d="m1091.41,8.85c5.33-5.45,12.11-8.17,20.34-8.17,11.01,0,19.06,3.65,24.16,10.95,2.81,4.1,4.32,8.21,4.53,12.34h-13.83c-.88-3.17-2.01-5.57-3.39-7.18-2.46-2.87-6.11-4.31-10.95-4.31s-8.81,2.03-11.65,6.08c-2.84,4.06-4.27,9.79-4.27,17.21s1.5,12.98,4.5,16.68,6.81,5.54,11.44,5.54,8.36-1.59,10.85-4.76c1.38-1.71,2.52-4.26,3.42-7.68h13.74c-1.19,7.21-4.21,13.08-9.08,17.6s-11.11,6.78-18.72,6.78c-9.42,0-16.82-3.05-22.21-9.16-5.39-6.13-8.08-14.54-8.08-25.23,0-11.53,3.07-20.43,9.2-26.69Z"/><path class="cls-1" d="m1187.57,62.12c-4.13,5.1-10.4,7.65-18.81,7.65s-14.68-2.55-18.81-7.65-6.19-11.24-6.19-18.41,2.06-13.17,6.19-18.34,10.4-7.76,18.81-7.76,14.68,2.59,18.81,7.76,6.2,11.29,6.2,18.34-2.07,13.31-6.2,18.41Zm-10.23-7.07c2-2.66,3.01-6.44,3.01-11.34s-1-8.67-3.01-11.32c-2.01-2.64-4.88-3.97-8.62-3.97s-6.62,1.32-8.64,3.97c-2.02,2.64-3.03,6.42-3.03,11.32s1.01,8.68,3.03,11.34,4.9,3.99,8.64,3.99c3.74,0,6.61-1.33,8.62-3.99Z"/><path class="cls-1" d="m1212,19.18v29.49c0,2.78.33,4.88.98,6.28,1.16,2.48,3.44,3.73,6.83,3.73,4.35,0,7.32-1.77,8.93-5.3.83-1.92,1.25-4.44,1.25-7.59v-26.62h12.97v48.93h-12.43v-6.91c-.12.15-.42.6-.89,1.35-.48.75-1.04,1.41-1.7,1.98-2,1.79-3.93,3.02-5.8,3.68s-4.05.99-6.56.99c-7.22,0-12.09-2.6-14.59-7.81-1.4-2.87-2.1-7.11-2.1-12.7v-29.49h13.11Z"/><path class="cls-1" d="m1291.18,21.98c3.2,2.65,4.81,7.04,4.81,13.17v32.95h-13.11v-29.76c0-2.57-.34-4.55-1.02-5.93-1.25-2.51-3.62-3.77-7.13-3.77-4.31,0-7.26,1.84-8.87,5.52-.83,1.95-1.25,4.43-1.25,7.45v26.48h-12.79V19.25h12.39v7.14c1.64-2.51,3.19-4.32,4.65-5.43,2.62-1.98,5.94-2.96,9.97-2.96,5.03,0,9.15,1.34,12.35,3.98Z"/><path class="cls-1" d="m1299.18,28.74v-9.11h6.82V5.98h12.66v13.65h7.95v9.11h-7.95v25.86c0,2,.25,3.25.76,3.75.51.49,2.07.74,4.67.74.39,0,.8,0,1.23-.02.43,0,.86-.04,1.28-.07v9.56l-6.06.22c-6.04.21-10.18-.84-12.39-3.14-1.44-1.47-2.16-3.73-2.16-6.78v-30.12h-6.81Z"/><path class="cls-1" d="m1344.29,13.34h-12.97V1.54h12.97v11.8Zm-12.97,5.84h12.97v48.93h-12.97V19.18Z"/><path class="cls-1" d="m1384.89,20.17c3.41,1.53,6.23,3.94,8.46,7.24,2,2.91,3.3,6.28,3.9,10.12.34,2.25.48,5.49.42,9.71h-35.64c.2,4.91,1.9,8.35,5.12,10.32,1.95,1.23,4.3,1.84,7.05,1.84,2.92,0,5.28-.75,7.11-2.25.99-.81,1.87-1.93,2.63-3.37h13.06c-.34,2.9-1.93,5.85-4.74,8.84-4.38,4.76-10.52,7.14-18.41,7.14-6.51,0-12.26-2.01-17.23-6.02-4.98-4.01-7.47-10.54-7.47-19.59,0-8.48,2.25-14.98,6.74-19.5s10.33-6.78,17.5-6.78c4.25,0,8.09.77,11.5,2.3Zm-19.14,11.05c-1.81,1.86-2.94,4.39-3.41,7.57h22.04c-.23-3.4-1.37-5.97-3.41-7.73s-4.57-2.64-7.59-2.64c-3.28,0-5.82.94-7.63,2.8Z"/><path class="cls-1" d="m1410.38,52.49c.27,2.28.86,3.89,1.76,4.85,1.59,1.71,4.54,2.56,8.84,2.56,2.53,0,4.53-.37,6.02-1.12s2.23-1.87,2.23-3.37-.6-2.53-1.8-3.28-5.66-2.03-13.38-3.86c-5.56-1.38-9.48-3.1-11.75-5.16-2.27-2.03-3.41-4.97-3.41-8.8,0-4.52,1.78-8.4,5.33-11.65s8.55-4.87,15-4.87,11.1,1.22,14.96,3.66c3.85,2.44,6.07,6.65,6.64,12.64h-12.79c-.18-1.65-.65-2.95-1.4-3.91-1.41-1.74-3.81-2.6-7.2-2.6-2.79,0-4.78.43-5.96,1.3-1.19.87-1.78,1.89-1.78,3.05,0,1.47.63,2.53,1.89,3.19,1.26.69,5.71,1.87,13.36,3.55,5.1,1.2,8.92,3.01,11.46,5.43,2.51,2.45,3.77,5.52,3.77,9.2,0,4.85-1.81,8.81-5.42,11.87s-9.2,4.6-16.75,4.6-13.4-1.62-17.07-4.87-5.51-7.38-5.51-12.41h12.96Z"/></g></svg>