<?xml version="1.0" encoding="UTF-8" standalone="no"?>
<svg
   xmlns:dc="http://purl.org/dc/elements/1.1/"
   xmlns:cc="http://creativecommons.org/ns#"
   xmlns:rdf="http://www.w3.org/1999/02/22-rdf-syntax-ns#"
   xmlns:svg="http://www.w3.org/2000/svg"
   xmlns="http://www.w3.org/2000/svg"
   viewBox="0 0 1042.4933 107.67973"
   height="107.67973"
   width="1042.4933"
   xml:space="preserve"
   id="svg2"
   version="1.1"><metadata
     id="metadata8"><rdf:RDF><cc:Work
         rdf:about=""><dc:format>image/svg+xml</dc:format><dc:type
           rdf:resource="http://purl.org/dc/dcmitype/StillImage" /></cc:Work></rdf:RDF></metadata><defs
     id="defs6"><clipPath
       id="clipPath18"
       clipPathUnits="userSpaceOnUse"><path
         id="path16"
         d="M 0,80.76 H 781.87 V 0 H 0 Z" /></clipPath></defs><g
     transform="matrix(1.3333333,0,0,-1.3333333,0,107.67973)"
     id="g10"><g
       id="g12"><g
         clip-path="url(#clipPath18)"
         id="g14"><g
           transform="translate(142.9375,74.7139)"
           id="g20"><path
             id="path22"
             style="fill:#373535;fill-opacity:1;fill-rule:nonzero;stroke:none"
             d="m 0,0 c 3.902,3.424 6.09,5.337 6.561,5.74 v -21.955 l -0.806,0.302 c -0.942,5.88 -3.392,10.808 -7.353,14.783 -3.961,3.975 -8.459,5.963 -13.494,5.963 -3.491,0 -6.512,-0.806 -9.063,-2.413 -3.157,-1.946 -4.735,-4.793 -4.735,-8.547 0,-3.62 1.708,-6.57 5.124,-8.848 2.879,-1.945 7.502,-3.653 13.866,-5.129 8.238,-2.01 13.629,-3.923 16.175,-5.732 4.149,-3.019 6.229,-8.048 6.229,-15.082 0,-6.639 -2.15,-11.766 -6.445,-15.387 -3.626,-3.082 -8.025,-4.628 -13.196,-4.628 -3.961,0 -7.502,0.641 -10.622,1.917 -3.124,1.273 -5.827,3.387 -8.109,6.344 -4.027,-5.304 -6.143,-8.056 -6.345,-8.261 v 27.798 l 0.805,0.101 c 1.275,-5.776 2.721,-10.408 4.331,-13.898 1.344,-2.957 2.922,-5.404 4.735,-7.351 3.556,-3.825 8.725,-5.74 15.509,-5.74 3.155,0 6.043,1.038 8.66,3.118 3.022,2.413 4.533,5.426 4.533,9.048 0,4.424 -2.046,7.91 -6.13,10.458 -2.813,1.745 -7.718,3.568 -14.716,5.479 -7.001,1.911 -11.874,3.872 -14.618,5.882 -4.02,3.027 -6.028,7.432 -6.028,13.216 0,5.176 1.832,9.564 5.501,13.166 3.666,3.594 8.027,5.396 13.073,5.396 4.308,0 7.842,-0.639 10.603,-1.915 C -5.08,3.424 -3.097,2.146 0,0" /></g><g
           transform="translate(187.8691,51.4277)"
           id="g24"><path
             id="path26"
             style="fill:#373535;fill-opacity:1;fill-rule:nonzero;stroke:none"
             d="M 0,0 C 0,1.551 -0.186,2.58 -0.556,3.085 -0.925,3.593 -1.53,3.912 -2.367,4.048 -3.209,4.184 -5.944,4.252 -10.575,4.252 V 5.157 L 9.465,6.266 V -27.96 c 0,-0.874 0.017,-1.751 0.051,-2.626 0.034,-0.874 0.183,-1.515 0.455,-1.917 l 0.603,-1.012 c 0.668,-0.469 3.223,-0.706 7.654,-0.706 v -0.906 L 0,-36.737 v 12.747 c -0.404,-2.743 -1.411,-5.286 -3.022,-7.629 -2.082,-3.011 -4.634,-4.687 -7.655,-5.018 -0.402,-0.069 -0.804,-0.1 -1.208,-0.1 h -1.208 c -3.965,0 -7.051,1.243 -9.265,3.735 -1.881,2.086 -2.821,4.609 -2.821,7.572 V 0.92 c 0,1.212 -0.151,2.036 -0.452,2.474 -0.303,0.438 -0.756,0.688 -1.36,0.756 -0.605,0.067 -2.183,0.102 -4.733,0.102 h -2.319 v 0.905 l 18.331,1.109 V -26.95 c 0,-3.431 0.418,-5.753 1.26,-6.964 0.837,-1.211 2.064,-1.815 3.674,-1.815 3.021,0 5.573,1.818 7.654,5.462 2.081,3.646 3.124,7.593 3.124,11.844 z" /></g><g
           transform="translate(219.3906,29.9688)"
           id="g28"><path
             id="path30"
             style="fill:#373535;fill-opacity:1;fill-rule:nonzero;stroke:none"
             d="m 0,0 c 0,-6.34 1.173,-10.692 3.524,-13.052 1.476,-1.485 3.625,-2.226 6.446,-2.226 2.753,0 4.732,1.938 5.941,5.818 1.209,3.878 1.814,8.989 1.814,15.33 0,7.556 -0.673,12.92 -2.016,16.092 -1.343,3.169 -3.256,4.756 -5.739,4.756 -2.687,0 -4.936,-1.587 -6.749,-4.755 C 1.072,18.253 0,13.122 0,6.577 Z m -9.468,-16.187 v 59.716 c 0,1.345 -0.202,2.284 -0.603,2.824 -0.404,0.538 -0.806,0.873 -1.209,1.008 -1.143,0.338 -3.727,0.505 -7.756,0.505 v 0.906 L 0,50.485 V 14.979 c 0,3.077 0.988,5.971 2.97,8.681 1.979,2.709 4.313,4.065 7,4.065 6.043,0 10.776,-2.719 14.2,-8.158 2.684,-4.298 4.027,-8.831 4.027,-13.596 0,-6.111 -1.728,-11.332 -5.185,-15.659 -3.458,-4.334 -7.438,-6.499 -11.935,-6.499 -4.096,0 -7.134,0.518 -9.114,1.548 -1.98,1.033 -4.078,3.115 -6.295,6.242 l -4.331,-7.79 z" /></g><g
           transform="translate(279.0078,51.4277)"
           id="g32"><path
             id="path34"
             style="fill:#373535;fill-opacity:1;fill-rule:nonzero;stroke:none"
             d="m 0,0 c 0,1.551 -0.184,2.58 -0.551,3.085 -0.372,0.508 -0.976,0.827 -1.814,0.963 -0.841,0.136 -3.576,0.204 -8.209,0.204 V 5.157 L 9.469,6.266 V -27.96 c 0,-0.874 0.015,-1.751 0.05,-2.626 0.032,-0.874 0.184,-1.515 0.454,-1.917 l 0.602,-1.012 c 0.671,-0.469 3.224,-0.706 7.654,-0.706 v -0.906 L 0,-36.737 v 12.747 c -0.4,-2.743 -1.408,-5.286 -3.02,-7.629 -2.082,-3.011 -4.631,-4.687 -7.654,-5.018 -0.402,-0.069 -0.805,-0.1 -1.209,-0.1 h -1.208 c -3.962,0 -7.05,1.243 -9.264,3.735 -1.882,2.086 -2.821,4.609 -2.821,7.572 V 0.92 c 0,1.212 -0.151,2.036 -0.453,2.474 -0.304,0.438 -0.756,0.688 -1.359,0.756 -0.604,0.067 -2.183,0.102 -4.734,0.102 h -2.316 V 5.157 L -15.71,6.266 V -26.95 c 0,-3.431 0.42,-5.753 1.259,-6.964 0.84,-1.211 2.064,-1.815 3.679,-1.815 3.019,0 5.568,1.818 7.651,5.462 2.08,3.646 3.121,7.593 3.121,11.844 z" /></g><g
           transform="translate(304.4873,51.0117)"
           id="g36"><path
             id="path38"
             style="fill:#373535;fill-opacity:1;fill-rule:nonzero;stroke:none"
             d="M 0,0 C 0,1.354 -0.134,2.199 -0.401,2.539 -0.873,3.217 -1.307,3.622 -1.71,3.758 -2.919,4.094 -5.672,4.265 -9.969,4.265 V 5.171 L 9.468,6.682 V -6.109 c 0.267,2.754 1.209,5.337 2.819,7.755 2.218,3.357 5.003,5.036 8.359,5.036 1.277,0 2.653,-0.421 4.132,-1.26 1.477,-0.842 2.466,-1.898 2.967,-3.172 0.506,-1.276 0.757,-2.417 0.757,-3.424 0,-2.687 -1.117,-4.531 -3.359,-5.538 -0.539,-0.269 -1.251,-0.403 -2.132,-0.403 -1.358,0 -2.508,0.469 -3.458,1.41 -0.95,0.939 -1.425,2.35 -1.425,4.229 0,1.208 0.458,2.416 1.373,3.626 0.916,1.207 1.982,1.677 3.203,1.409 -0.398,1.41 -1.602,2.116 -3.608,2.116 -1.94,0 -3.879,-1.418 -5.817,-4.251 C 10.737,-2.22 9.468,-6.91 9.468,-12.645 v -18.824 c 0,-1.35 0.1,-2.225 0.303,-2.631 0.133,-0.204 0.436,-0.406 0.906,-0.608 1.411,-0.472 4.332,-0.708 8.762,-0.708 v -0.905 H -9.969 v 0.905 c 1.948,0 3.711,0.068 5.287,0.202 1.578,0.136 2.939,0.406 4.078,0.813 0.404,0.338 0.604,1.32 0.604,2.942 z" /></g><g
           transform="translate(346.9893,29.9688)"
           id="g40"><path
             id="path42"
             style="fill:#373535;fill-opacity:1;fill-rule:nonzero;stroke:none"
             d="m 0,0 c 0,-6.34 1.173,-10.692 3.525,-13.052 1.476,-1.485 3.624,-2.226 6.444,-2.226 2.754,0 4.736,1.938 5.943,5.818 1.209,3.878 1.812,8.989 1.812,15.33 0,7.556 -0.671,12.92 -2.012,16.092 -1.347,3.169 -3.258,4.756 -5.743,4.756 -2.685,0 -4.936,-1.587 -6.748,-4.755 C 1.072,18.253 0,13.122 0,6.577 Z m -9.469,-16.187 v 59.716 c 0,1.345 -0.198,2.284 -0.602,2.824 -0.403,0.538 -0.808,0.873 -1.207,1.008 -1.146,0.338 -3.727,0.505 -7.757,0.505 v 0.906 L 0,50.485 V 14.979 c 0,3.077 0.989,5.971 2.97,8.681 1.98,2.709 4.314,4.065 6.999,4.065 6.043,0 10.776,-2.719 14.2,-8.158 2.686,-4.298 4.028,-8.831 4.028,-13.596 0,-6.111 -1.728,-11.332 -5.187,-15.659 -3.456,-4.334 -7.434,-6.499 -11.933,-6.499 -4.097,0 -7.134,0.518 -9.115,1.548 -1.98,1.033 -4.078,3.115 -6.293,6.242 l -4.331,-7.79 z" /></g><g
           transform="translate(401.6729,25.7178)"
           id="g44"><path
             id="path46"
             style="fill:#373535;fill-opacity:1;fill-rule:nonzero;stroke:none"
             d="m 0,0 v 13.462 c -0.806,-1.078 -1.999,-1.738 -3.575,-1.975 -1.576,-0.234 -3.104,-0.454 -4.583,-0.659 -1.946,-0.47 -3.491,-1.551 -4.631,-3.234 -1.345,-2.025 -2.015,-4.86 -2.015,-8.502 0,-3.913 0.386,-6.562 1.157,-7.946 0.773,-1.383 1.998,-2.073 3.679,-2.073 2.548,0 4.85,1.063 6.897,3.187 C -1.024,-5.616 0,-3.036 0,0 m 0.303,18.218 v 5.869 c 0,2.697 -0.433,4.519 -1.288,5.464 -0.856,0.943 -2.701,1.418 -5.535,1.418 -2.31,0 -4.334,-0.448 -6.076,-1.338 -1.741,-0.891 -2.88,-2.09 -3.415,-3.598 0.266,0.067 0.601,0.101 1.006,0.101 1.275,0 2.316,-0.504 3.122,-1.51 0.805,-1.008 1.21,-2.15 1.21,-3.425 0,-1.479 -0.513,-2.684 -1.53,-3.627 -1.012,-0.939 -2.201,-1.408 -3.559,-1.408 -0.881,0 -1.661,0.233 -2.337,0.706 -1.966,1.273 -2.949,2.887 -2.949,4.833 0,0.94 0.199,2.014 0.605,3.223 0.937,2.618 3.288,4.531 7.049,5.74 2.683,0.872 5.404,1.31 8.158,1.31 4.966,0 8.725,-0.939 11.281,-2.815 2.278,-1.674 3.424,-3.784 3.424,-6.329 V 0.627 c 0,-4.017 0.099,-6.497 0.3,-7.434 0.47,-2.279 1.678,-3.415 3.627,-3.415 1.744,0 2.918,0.902 3.522,2.702 0.606,1.803 0.906,4.407 0.906,7.81 0,0.934 -0.016,1.868 -0.048,2.804 -0.033,0.937 -0.05,1.901 -0.05,2.901 v 0.903 h 1.208 v -4.43 c 0,-1.41 0.033,-2.755 0.099,-4.03 0,-3.894 -0.471,-6.512 -1.419,-7.855 -1.213,-1.676 -3.675,-2.52 -7.388,-2.52 -2.904,0 -5.066,0.504 -6.483,1.499 -1.687,1.198 -2.801,3.227 -3.341,6.088 -1.409,-3.26 -3.523,-5.457 -6.342,-6.586 -1.681,-0.666 -3.927,-1.001 -6.749,-1.001 -2.82,0 -5.271,0.675 -7.353,2.02 -2.888,1.813 -4.33,4.571 -4.33,8.269 0,3.627 1.403,6.687 4.213,9.175 2.806,2.422 6.219,3.796 10.231,4.133 4.011,0.338 6.719,0.878 8.123,1.616 1.403,0.739 2.108,2.384 2.108,4.942" /></g><g
           transform="translate(439.6416,39.3779)"
           id="g48"><path
             id="path50"
             style="fill:#373535;fill-opacity:1;fill-rule:nonzero;stroke:none"
             d="m 0,0 v -19.835 c 0,-1.351 0.1,-2.226 0.299,-2.631 0.137,-0.204 0.455,-0.406 0.957,-0.608 0.506,-0.202 1.413,-0.37 2.722,-0.507 1.31,-0.135 2.464,-0.201 3.471,-0.201 v -0.905 h -25.778 v 0.905 c 1.475,0 2.934,0.066 4.381,0.201 1.441,0.137 2.731,0.403 3.878,0.811 0.401,0.337 0.602,1.315 0.602,2.935 v 30.673 c 0,0.606 -0.018,1.214 -0.05,1.823 -0.033,0.606 -0.185,1.079 -0.453,1.416 l -0.604,1.012 c -0.671,0.472 -3.223,0.708 -7.654,0.708 v 0.906 L 0,18.315 V 5.469 c 0.4,2.877 1.274,5.419 2.619,7.629 1.878,3.076 3.86,4.733 5.941,4.967 2.081,0.232 3.426,0.351 4.028,0.351 4.229,0 7.588,-1.279 10.071,-3.836 2.081,-2.155 3.121,-4.713 3.121,-7.674 v -26.754 c 0,-1.344 0.1,-2.222 0.305,-2.626 0.134,-0.202 0.469,-0.402 1.005,-0.603 0.535,-0.2 1.511,-0.37 2.921,-0.504 1.412,-0.135 2.752,-0.201 4.03,-0.201 v -0.905 H 8.257 v 0.905 c 1.074,0 2.317,0.066 3.729,0.201 1.406,0.137 2.649,0.403 3.725,0.811 0.402,0.337 0.603,1.315 0.603,2.935 V 5.77 c 0,3.24 -0.269,5.702 -0.805,7.387 -0.874,2.768 -2.486,4.152 -4.836,4.152 -3.087,0 -5.607,-1.925 -7.551,-5.77 C 1.646,8.637 0.604,4.79 0,0" /></g><g
           transform="translate(513.3916,15.8994)"
           id="g52"><path
             id="path54"
             style="fill:#373535;fill-opacity:1;fill-rule:nonzero;stroke:none"
             d="m 0,0 c 8.104,0 14.295,2.474 18.583,7.424 4.288,4.954 6.432,12.448 6.432,22.486 H 26.32 V -1.209 h -65.865 v 1.008 c 2.955,0 5.474,0.098 7.555,0.302 2.083,0.2 3.507,0.453 4.282,0.756 0.771,0.302 1.273,0.675 1.51,1.112 0.234,0.438 0.353,1.6 0.353,3.486 v 51.73 c 0,1.952 -0.136,3.165 -0.405,3.636 -0.135,0.27 -0.587,0.539 -1.358,0.809 -0.774,0.268 -2.284,0.538 -4.533,0.808 -2.251,0.269 -4.715,0.404 -7.404,0.404 v 0.906 H 1.849 v -0.906 c -3.762,0 -6.697,-0.103 -8.811,-0.304 -2.116,-0.2 -3.612,-0.471 -4.481,-0.808 -0.874,-0.335 -1.379,-0.639 -1.513,-0.909 -0.335,-0.606 -0.501,-1.818 -0.501,-3.638 V 5.555 c 0,-1.953 0.132,-3.2 0.399,-3.738 0.135,-0.269 0.537,-0.54 1.208,-0.807 C -9.575,0.336 -5.622,0 0,0" /></g><g
           transform="translate(555.373,80.4541)"
           id="g56"><path
             id="path58"
             style="fill:#373535;fill-opacity:1;fill-rule:nonzero;stroke:none"
             d="M 0,0 C 1.596,0 2.929,-0.54 3.991,-1.61 5.056,-2.686 5.589,-4.029 5.589,-5.642 5.589,-7.253 5.056,-8.596 3.991,-9.668 2.929,-10.743 1.596,-11.28 0,-11.28 c -1.599,0 -2.929,0.537 -3.992,1.612 -1.066,1.072 -1.598,2.415 -1.598,4.026 0,1.613 0.532,2.956 1.598,4.032 C -2.929,-0.54 -1.599,0 0,0 m 5.288,-22.761 v -38.15 c 0,-1.351 0.102,-2.226 0.301,-2.631 0.134,-0.204 0.435,-0.406 0.906,-0.608 1.411,-0.472 4.331,-0.708 8.761,-0.708 v -0.906 h -29.404 v 0.906 c 1.944,0 3.709,0.068 5.287,0.202 1.574,0.135 2.932,0.406 4.076,0.812 0.404,0.338 0.605,1.321 0.605,2.943 v 31.462 c 0,1.284 -0.137,2.096 -0.401,2.436 -0.472,0.677 -0.906,1.082 -1.31,1.218 -1.21,0.338 -3.963,0.506 -8.257,0.506 v 0.906 z" /></g><g
           transform="translate(587.4502,54.874)"
           id="g60"><path
             id="path62"
             style="fill:#373535;fill-opacity:1;fill-rule:nonzero;stroke:none"
             d="m 0,0 v -35.331 c 0,-1.416 0.102,-2.297 0.301,-2.631 0.136,-0.204 0.471,-0.406 1.01,-0.608 1.405,-0.472 4.194,-0.708 8.356,-0.708 v -0.906 h -28.602 v 0.906 c 4.028,0 6.751,0.236 8.158,0.708 l 0.706,0.304 c 0.4,0.337 0.606,1.315 0.606,2.935 V 0 h -9.47 v 1.711 h 9.47 v 5.943 c 0,4.496 1.562,8.61 4.697,12.336 3.138,3.728 6.757,5.59 10.869,5.59 2.629,0 4.785,-0.42 6.472,-1.26 1.682,-0.841 2.778,-1.882 3.284,-3.121 0.505,-1.243 0.759,-2.4 0.759,-3.474 0,-1.882 -0.915,-3.392 -2.745,-4.533 -0.745,-0.471 -1.596,-0.705 -2.544,-0.705 -1.288,0 -2.424,0.449 -3.409,1.346 -0.981,0.897 -1.473,2.074 -1.473,3.535 0,2.66 1.309,4.22 3.926,4.687 -0.47,0.938 -0.94,1.61 -1.411,2.013 -0.467,0.404 -1.206,0.605 -2.213,0.605 -2.651,0 -4.436,-0.751 -5.362,-2.256 C 0.462,20.911 0,18.122 0,14.045 V 1.711 H 9.367 V 0 Z" /></g><g
           transform="translate(623.2998,36.6445)"
           id="g64"><path
             id="path66"
             style="fill:#373535;fill-opacity:1;fill-rule:nonzero;stroke:none"
             d="m 0,0 c 0,6.511 -0.579,11.478 -1.74,14.903 -1.161,3.424 -3.039,5.139 -5.626,5.139 -3.653,0 -6.222,-1.629 -7.715,-4.884 C -16.576,11.902 -17.322,6.851 -17.322,0 Z m -17.322,-1.209 c 0,-7.219 0.858,-12.449 2.57,-15.687 1.712,-3.239 4.313,-4.858 7.804,-4.858 3.694,0 6.948,1.25 9.767,3.751 3.426,3.039 5.139,7.161 5.139,12.362 h 0.805 c 0,-5.032 -1.612,-9.162 -4.836,-12.387 -3.221,-3.223 -7.517,-4.835 -12.888,-4.835 -4.5,0 -8.599,1.715 -12.286,5.138 -4.367,4.028 -6.548,9.297 -6.548,15.814 0,7.048 2.148,12.788 6.447,17.219 3.757,3.827 7.987,5.741 12.688,5.741 4.364,0 7.99,-1.277 10.878,-3.828 4.227,-3.76 6.345,-9.905 6.345,-18.43 z" /></g><g
           transform="translate(681.2783,22.6836)"
           id="g68"><path
             id="path70"
             style="fill:#373535;fill-opacity:1;fill-rule:nonzero;stroke:none"
             d="m 0,0 c -0.926,-1.88 -2.138,-3.473 -3.636,-4.78 -1.498,-1.308 -3.24,-2.316 -5.228,-3.023 -1.99,-0.708 -4.181,-1.062 -6.577,-1.062 -2.996,0 -5.652,0.558 -7.965,1.675 -2.317,1.115 -4.263,2.626 -5.842,4.534 -1.581,1.905 -2.777,4.126 -3.596,6.658 -0.816,2.534 -1.224,5.243 -1.224,8.13 0,3.05 0.394,5.949 1.184,8.7 0.789,2.752 1.988,5.175 3.594,7.272 1.606,2.097 3.648,3.77 6.128,5.025 2.478,1.252 5.378,1.879 8.701,1.879 1.962,0 3.841,-0.3 5.638,-0.899 1.798,-0.599 3.403,-1.469 4.82,-2.615 1.416,-1.142 2.601,-2.573 3.554,-4.289 0.953,-1.716 1.566,-3.69 1.838,-5.923 h -1.632 c -0.328,2.07 -0.928,3.854 -1.799,5.352 -0.873,1.498 -1.934,2.749 -3.187,3.758 -1.253,1.006 -2.668,1.756 -4.248,2.248 -1.58,0.489 -3.242,0.734 -4.984,0.734 -3.323,0 -6.141,-0.642 -8.456,-1.92 -2.315,-1.281 -4.166,-2.941 -5.555,-4.983 -1.389,-2.043 -2.398,-4.33 -3.023,-6.865 -0.628,-2.532 -0.94,-5.024 -0.94,-7.474 0,-2.561 0.368,-5.013 1.103,-7.353 0.735,-2.343 1.811,-4.412 3.228,-6.21 1.417,-1.798 3.186,-3.227 5.31,-4.29 2.123,-1.061 4.575,-1.592 7.353,-1.592 2.069,0 4.003,0.313 5.8,0.939 1.798,0.626 3.391,1.539 4.781,2.737 1.387,1.198 2.517,2.627 3.39,4.289 0.87,1.662 1.388,3.554 1.552,5.679 H 1.717 C 1.497,3.989 0.927,1.878 0,0" /></g><g
           transform="translate(688.1836,28.0342)"
           id="g72"><path
             id="path74"
             style="fill:#373535;fill-opacity:1;fill-rule:nonzero;stroke:none"
             d="m 0,0 c 0.734,-2.452 1.837,-4.616 3.309,-6.495 1.469,-1.879 3.28,-3.378 5.432,-4.494 2.152,-1.116 4.644,-1.675 7.476,-1.675 2.778,0 5.241,0.559 7.394,1.675 2.151,1.116 3.961,2.615 5.433,4.494 1.47,1.879 2.573,4.043 3.309,6.495 0.735,2.452 1.102,5.011 1.102,7.679 0,2.615 -0.367,5.147 -1.102,7.598 -0.736,2.452 -1.839,4.617 -3.309,6.497 -1.472,1.877 -3.282,3.39 -5.433,4.533 -2.153,1.145 -4.616,1.716 -7.394,1.716 -2.832,0 -5.324,-0.571 -7.476,-1.716 C 6.589,25.164 4.778,23.651 3.309,21.774 1.837,19.894 0.734,17.729 0,15.277 -0.736,12.826 -1.104,10.294 -1.104,7.679 -1.104,5.011 -0.736,2.452 0,0 m -1.512,15.973 c 0.818,2.639 2.029,4.968 3.636,6.984 1.605,2.015 3.581,3.637 5.923,4.863 2.342,1.224 5.065,1.837 8.17,1.837 3.051,0 5.746,-0.613 8.088,-1.837 2.342,-1.226 4.316,-2.848 5.924,-4.863 1.605,-2.016 2.819,-4.345 3.635,-6.984 0.818,-2.644 1.226,-5.407 1.226,-8.294 0,-2.887 -0.408,-5.65 -1.226,-8.292 -0.816,-2.643 -2.03,-4.971 -3.635,-6.986 -1.608,-2.014 -3.582,-3.623 -5.924,-4.82 -2.342,-1.197 -5.065,-1.797 -8.17,-1.797 -3.051,0 -5.746,0.6 -8.088,1.797 -2.342,1.197 -4.318,2.806 -5.923,4.82 -1.607,2.015 -2.818,4.343 -3.636,6.986 -0.817,2.642 -1.224,5.405 -1.224,8.292 0,2.887 0.407,5.65 1.224,8.294" /></g><g
           transform="translate(729.3184,56.7109)"
           id="g76"><path
             id="path78"
             style="fill:#373535;fill-opacity:1;fill-rule:nonzero;stroke:none"
             d="m 0,0 v -10.376 h 0.164 c 0.38,1.634 0.98,3.131 1.796,4.494 0.817,1.361 1.825,2.558 3.023,3.595 1.198,1.034 2.519,1.838 3.963,2.409 1.443,0.573 2.982,0.858 4.616,0.858 3.268,0.108 6.004,-0.722 8.211,-2.491 2.206,-1.771 3.663,-4.209 4.373,-7.312 h 0.161 c 0.818,2.941 2.424,5.31 4.822,7.107 2.394,1.798 5.228,2.696 8.495,2.696 2.561,0 4.685,-0.381 6.373,-1.144 1.688,-0.764 3.049,-1.811 4.085,-3.145 1.035,-1.336 1.771,-2.942 2.206,-4.819 0.436,-1.881 0.653,-3.964 0.653,-6.252 v -27.614 h -1.633 v 27.614 c 0,2.071 -0.177,3.948 -0.531,5.638 -0.355,1.688 -0.98,3.132 -1.88,4.331 -0.898,1.195 -2.096,2.124 -3.594,2.776 -1.499,0.655 -3.391,0.982 -5.679,0.982 -2.015,0 -3.84,-0.396 -5.473,-1.186 -1.634,-0.79 -3.022,-1.866 -4.167,-3.226 -1.143,-1.362 -2.015,-2.929 -2.615,-4.698 -0.599,-1.771 -0.898,-3.636 -0.898,-5.596 v -26.635 h -1.634 v 26.961 c 0,1.962 -0.15,3.811 -0.449,5.555 -0.3,1.743 -0.859,3.268 -1.675,4.577 -0.817,1.305 -1.961,2.339 -3.432,3.103 -1.469,0.762 -3.378,1.145 -5.719,1.145 -2.071,0 -3.95,-0.478 -5.637,-1.43 C 6.236,-3.036 4.807,-4.318 3.636,-5.924 2.464,-7.53 1.565,-9.396 0.939,-11.519 0.312,-13.643 0,-15.879 0,-18.219 V -41.994 H -1.634 V 0 Z" /></g><g
           transform="translate(2.0225,56.0732)"
           id="g80"><path
             id="path82"
             style="fill:#373535;fill-opacity:1;fill-rule:nonzero;stroke:none"
             d="m 0,0 v -10.375 h 0.164 c 0.38,1.633 0.979,3.13 1.796,4.493 0.817,1.361 1.824,2.559 3.023,3.596 1.198,1.033 2.519,1.838 3.962,2.409 1.443,0.572 2.984,0.857 4.617,0.857 3.268,0.109 6.005,-0.721 8.211,-2.491 2.206,-1.771 3.662,-4.209 4.371,-7.312 h 0.163 c 0.817,2.941 2.423,5.31 4.821,7.108 2.395,1.797 5.227,2.695 8.496,2.695 2.561,0 4.685,-0.38 6.373,-1.143 1.687,-0.764 3.049,-1.811 4.085,-3.146 1.033,-1.336 1.77,-2.942 2.205,-4.819 0.436,-1.88 0.654,-3.963 0.654,-6.251 v -27.615 h -1.633 v 27.615 c 0,2.07 -0.178,3.948 -0.532,5.637 -0.354,1.688 -0.98,3.132 -1.879,4.331 -0.899,1.196 -2.096,2.125 -3.594,2.777 -1.499,0.655 -3.391,0.981 -5.679,0.981 -2.016,0 -3.841,-0.397 -5.474,-1.186 -1.633,-0.79 -3.022,-1.866 -4.166,-3.226 -1.144,-1.362 -2.015,-2.928 -2.614,-4.698 -0.6,-1.77 -0.899,-3.635 -0.899,-5.596 v -26.635 h -1.634 v 26.962 c 0,1.961 -0.15,3.811 -0.45,5.554 -0.299,1.744 -0.859,3.269 -1.674,4.577 -0.818,1.305 -1.96,2.34 -3.433,3.104 -1.469,0.762 -3.378,1.144 -5.718,1.144 -2.071,0 -3.95,-0.478 -5.637,-1.429 C 6.234,-3.036 4.806,-4.317 3.634,-5.923 2.463,-7.53 1.564,-9.396 0.938,-11.519 0.312,-13.643 0,-15.878 0,-18.219 V -41.994 H -1.635 V 0 Z" /></g><g
           transform="translate(98.7559,56.0732)"
           id="g84"><path
             id="path86"
             style="fill:#373535;fill-opacity:1;fill-rule:nonzero;stroke:none"
             d="m 0,0 -19.363,-50.491 c -0.546,-1.415 -1.2,-2.518 -1.961,-3.309 -0.764,-0.789 -1.607,-1.374 -2.533,-1.756 -0.927,-0.381 -1.949,-0.613 -3.064,-0.695 -1.117,-0.082 -2.302,-0.122 -3.554,-0.122 v 1.634 c 1.415,0 2.628,0.041 3.635,0.123 1.008,0.082 1.88,0.3 2.615,0.653 0.735,0.355 1.389,0.899 1.96,1.635 0.573,0.734 1.104,1.728 1.594,2.98 l 3.023,7.763 L -35.131,0 h 1.714 L -16.75,-39.787 -1.716,0 Z" /></g><path
           id="path88"
           style="fill:#373535;fill-opacity:1;fill-rule:nonzero;stroke:none"
           d="m 636.956,18.401 h 5.278 v -5.277 h -5.278 z" /></g></g></g></svg>